<svg xmlns="http://www.w3.org/2000/svg" width="300" height="168" viewBox="0 0 300 168"><g filter="blur(12px)"><rect width="200%" height="200%" x="-50%" y="-50%" fill="#5e94ac"/><rect width="100%" height="100%" fill="#5e94ac"/><g fill-opacity=".5" transform="translate(.6 .6)scale(1.17188)"><circle r="1" fill="#c7b19a" transform="matrix(177.7495 29.1076 -13.79925 84.267 138.1 61.5)"/><circle r="1" fill="#072d2f" transform="matrix(-116.05043 -64.90578 5.182 -9.26533 16.6 65.1)"/><ellipse cx="187" cy="23" fill="#7ad6fd" rx="73" ry="47"/><ellipse cx="240" cy="108" fill="#7e5f50" rx="84" ry="39"/><circle r="1" fill="#fff" transform="matrix(102.65492 61.19462 -2.94807 4.94543 50.8 58.8)"/><path fill="#fff" d="M69.8 32.1 25.7 13.4l12.5-29.5L82.3 2.6z"/><circle r="1" fill="#164245" transform="matrix(-3.91092 6.0956 -91.6215 -58.7841 80.4 61)"/><circle r="1" fill="#fff" transform="matrix(-48.01968 -23.2451 4.28595 -8.8539 41 101.5)"/><circle r="1" fill="#2b3c2f" transform="rotate(-67 111.2 42.2)scale(13.54158 63.63044)"/><path fill="#fff" d="m215 159-63-44-8 39z"/><circle r="1" fill="#482c14" transform="rotate(116.4 2.8 100.8)scale(23.99558 14.11459)"/><circle r="1" fill="#18261d" transform="matrix(-43.72683 -32.0032 2.59877 -3.55077 111.7 49.7)"/><circle r="1" fill="#ffeedb" transform="matrix(-66.0047 -46.9071 3.35897 -4.72653 114.4 64)"/><circle r="1" fill="#f1eae5" transform="matrix(72.76386 54.8315 -3.93213 5.2181 123.9 38.6)"/><path fill="#040000" d="m273.4 111 3.3 8.4-88 35.6-3.4-8.4z"/><path fill="#fff" d="M0 135h23v9H0z"/><circle r="1" fill="#fff" transform="matrix(-40.50482 13.8735 -1.0252 -2.99316 250.3 135.7)"/><circle r="1" fill="#a2d1e9" transform="rotate(-120.9 15.2 3.5)scale(14.37709 18.46511)"/><path fill="#e69e60" d="M109.6 104.9-10.8 25.6-16 54.8V39.6z"/><path fill="#290800" d="m21.4 60.7-8.1 16-18.7-9.4 8.1-16z"/><path fill="#2b1809" d="m172.5 110-4.8 9.9-24.2-11.9 4.8-9.9z"/><circle r="1" fill="#fff8ef" transform="matrix(.80431 1.86608 -87.86511 37.87114 241.5 104.6)"/><path fill="#001d21" d="m151.4 75.9 26.7 19.4-3.5 4.8-26.7-19.4z"/><path fill="#a66b39" d="m25 38 75 18-59-38z"/><path fill="#81797b" d="M104 114h44v30h-44z"/><circle r="1" fill="#796868" transform="rotate(-24.5 272.3 -538.9)scale(42.55447 12.25435)"/><circle r="1" fill="#7eb9d1" transform="rotate(-141.7 67 -15.4)scale(101.637 21.02973)"/><circle r="1" fill="#07779b" transform="matrix(-41.94779 -22.87068 3.1139 -5.71129 54.5 90.7)"/><path fill="#e5e5e2" d="M168.3 80 79.4 9.4l98.8 52.1 4.3 27.9z"/><circle r="1" fill="#006d91" transform="matrix(1.13964 -1.6191 51.41318 36.18825 107.9 82)"/><circle r="1" fill="#e69b56" transform="matrix(69.09123 32.06811 -1.833 3.94923 8.3 100.4)"/><path fill="#d4c3b5" d="m211 96-64 29h34z"/><path fill="#1983a6" d="M24.6-16.9 11.3 24l-21.9-7.1L2.7-24z"/><path fill="#33281a" d="M259.7 91.4 235 99l-47.2 21.5 14.3.3z"/><path fill="#fffffe" d="m55 153-58-24 17 30z"/><path fill="#fff3e6" d="m118.8 106.3-8.7 8.2 41.2.4L4 26.1z"/><circle r="1" fill="#56330f" transform="matrix(1.11467 -2.25536 46.98822 23.22302 30.6 117.9)"/><path fill="#fef2e8" d="M-16 84.9V62.1l113.7 58.5-13.8 9.5z"/><path fill="#fffffc" d="m161 121.8-.5-1L289 58.3l.5 1z"/><path fill="#2c2a25" d="M73 48 28 35l24 16z"/><path fill="#cb996e" d="M80.4 8.8 148.7 70l-61-42.9-23.5-2.9z"/><path fill="#005877" d="m-16 107 31 30 49 5z"/><path fill="#564e3d" d="m62.1 21.6 25 5.6 8.2 4.2 3.3 13.5z"/><path fill="#ce9d6d" d="M185.7 112.2 48.9 28.9l112.4 78 31.9 6.4z"/><circle r="1" fill="#62a8c1" transform="matrix(-35.85193 11.78751 -5.52548 -16.80584 146.6 10.1)"/><circle r="1" fill="#fff8f6" transform="matrix(-2.10318 3.09574 -45.06806 -30.61833 122.4 69)"/><path fill="#91acbb" d="m36 127-52-38v18z"/><circle r="1" fill="#322a20" transform="rotate(-25.9 317.5 -376.1)scale(45.30334 1)"/><path fill="#79b8d1" d="m174.4 77 12.3 11.1 43.1-35L181.6-16z"/><path fill="#ffebda" d="M211.2 159h16.1l-80.9-39.4 6.2 39.4z"/><path fill="#38352b" d="m126.1 83.5 33 23.5 26.5.7-31.8 9.8z"/><path fill="#685d4f" d="m104 118-44 23 53 18z"/><circle r="1" fill="#5f462e" transform="rotate(-150.8 40.3 33.9)scale(59.04508 3.72169)"/><path fill="#392e1a" d="m201.3 115.6-12.6 10.1-13.4 1.2 1-2.4z"/><path fill="#d99d60" d="m84.1 84.1 41.8 27.1-8.6 1.4-46-26.7z"/><path fill="#e5f0fa" d="M93-4 36 8l27 15z"/><circle r="1" fill="#ffefe4" transform="matrix(93.83128 59.85668 -2.04833 3.21095 33.9 49.6)"/><path fill="#1d1810" d="m287 56.9.4.9L203 97.1l-.5-.9z"/><circle r="1" fill="#ce9c6f" transform="rotate(-141.9 81.2 6.5)scale(48.38684 3.08864)"/><path fill="#f0efeb" d="m148.3 91.8 3-5.2 24.4 13.6-3 5.2z"/><path fill="#1b120c" d="m237 101 15-12 19-2z"/><path fill="#6f6861" d="m29 28 18-17-9 27z"/><path fill="#473014" d="M57.5 38.3 171 114.9l-.6.8L57 39.1z"/><path fill="#9c9086" d="m187 82-14 26 75-36z"/></g></g></svg>
