<svg xmlns="http://www.w3.org/2000/svg" width="1200" height="675" viewBox="0 0 300 168"><g filter="blur(2px)"><rect width="200%" height="200%" x="-50%" y="-50%" fill="#5e94ac"/><rect width="100%" height="100%" fill="#5e94ac"/><g transform="translate(.6 .6)scale(1.17188)"><circle r="1" fill="#c9b59f" fill-opacity=".5" transform="rotate(-61.2 44.5 -67.3)scale(122.21762 195.83206)"/><circle r="1" fill="#002427" fill-opacity=".5" transform="matrix(-4.81288 9.01372 -73.45044 -39.21888 44.4 81.4)"/><circle r="1" fill="#7ad5fb" fill-opacity=".5" transform="rotate(177.8 94 16.5)scale(67.27603 41.17986)"/><circle r="1" fill="#825d4a" fill-opacity=".5" transform="matrix(-57.4119 22.49948 -13.23337 -33.76757 225.7 102.2)"/><circle r="1" fill="#fff" fill-opacity=".5" transform="matrix(63.3943 30.14167 -4.05152 8.52121 32.5 96.4)"/><circle r="1" fill="#083030" fill-opacity=".5" transform="matrix(-3.67515 5.76882 -77.26086 -49.2206 94 69.5)"/><circle r="1" fill="#363e2d" fill-opacity=".5" transform="rotate(-66.7 114.8 40)scale(13.56719 145.81059)"/><circle r="1" fill="#e1ebf2" fill-opacity=".5" transform="rotate(-113 35.3 -19.2)scale(13.39798 74.48002)"/><circle r="1" fill="#fff" fill-opacity=".5" transform="rotate(31.2 -103.5 204.4)scale(116.03985 5.07886)"/><circle r="1" fill="#69584e" fill-opacity=".5" transform="matrix(3.54119 10.40217 -49.762 16.94036 98.1 133.5)"/><path fill="#252d20" fill-opacity=".5" d="M183 95.5 76 18.2 77.6 31l98.1 69.4z"/><path fill="#fffff1" fill-opacity=".5" d="m147.9 119.9.8-5.1-1.1 31.6 49.1-3.1z"/><path fill="#fff" fill-opacity=".5" d="m54.1 17.4 103.2 72.3-3.4 4.9L50.7 22.3z"/><path fill="#fff4ed" fill-opacity=".5" d="M149.1 62.9 51.8-7.8l116.1 64.6 18.4 37.9z"/><path fill="#fff" fill-opacity=".5" d="m29.6 143-4.3 11.2-29-11.2 4.4-11.2z"/><circle r="1" fill="#2d1100" fill-opacity=".5" transform="matrix(-2.1341 -5.0879 45.33317 -19.01478 220.6 137.7)"/><path fill="#9b693d" fill-opacity=".5" d="m23.8 35.6 16.4-19.3 74.4 53.2-78.7-27.9z"/><circle r="1" fill="#fffaf2" fill-opacity=".5" transform="matrix(-.72794 -1.67153 104.90425 -45.68505 229.3 109.5)"/><circle r="1" fill="#ffebd0" fill-opacity=".5" transform="matrix(31.2486 -10.21362 1.2151 3.71758 246.9 136)"/><path fill="#131712" fill-opacity=".5" d="m164 119-34-19 47 8z"/><path fill="#1681a6" fill-opacity=".5" d="m10.7-16 9.9 43.5-9.1-.4L-16 6z"/><path fill="#1c0000" fill-opacity=".5" d="m-16 56 37 2-10 17z"/><ellipse cx="139" cy="9" fill="#66b3d1" fill-opacity=".5" rx="48" ry="19"/><circle r="1" fill="#ffe4cb" fill-opacity=".5" transform="matrix(5.843 -10.8834 27.90917 14.98367 57.3 113)"/><circle r="1" fill="#21180a" fill-opacity=".5" transform="matrix(55.70192 -24.70982 .81051 1.8271 226 106.4)"/><circle r="1" fill="#eea565" fill-opacity=".5" transform="matrix(2.09697 -3.27894 43.21152 27.63492 47.6 67.3)"/><circle r="1" fill="#0e7d9f" fill-opacity=".5" transform="matrix(3.47793 -6.17233 32.14157 18.11084 60.2 93.8)"/><circle r="1" fill="#da924f" fill-opacity=".5" transform="matrix(-1.49284 3.38472 -51.91317 -22.89644 25.4 108.6)"/><path fill="#564e3c" fill-opacity=".5" d="m114.8 110.6-9-4.2 7 52.6-37.2-25.2z"/><path fill="#fdf2e9" fill-opacity=".5" d="M151.2 92.4.5-16l148.1 98.1 43.3 37.5z"/><path fill="#fffffc" fill-opacity=".5" d="m147.5 128.3-.4-1 85.4-41.6.4 1z"/><path fill="#362f22" fill-opacity=".5" d="m25 32.8-2.8.2 35.2 21.7 4.9-13.6z"/><circle r="1" fill="#80bfd6" fill-opacity=".5" transform="matrix(-22.67556 -19.9912 53.37838 -60.54589 226.7 18.7)"/><circle r="1" fill="#fff5e8" fill-opacity=".5" transform="matrix(-41.9906 -26.27884 2.69496 -4.30624 32 48.1)"/><circle r="1" fill="#057fa3" fill-opacity=".5" transform="rotate(-56 114.5 -51.3)scale(3.99304 50.72428)"/><path fill="#f5fcff" fill-opacity=".5" d="m71.2 26.8-4.4-1.9L83.4-9.4 47.2 10.1z"/><circle r="1" fill="#fffef1" fill-opacity=".5" transform="rotate(32.2 -106.6 224.4)scale(43.5267 3.76881)"/><circle r="1" fill="#d39255" fill-opacity=".5" transform="matrix(30.4768 20.89298 -2.02893 2.95961 131.8 83.7)"/><path fill="#87888d" fill-opacity=".5" d="M110 114h38v30h-38z"/><circle r="1" fill="#51310c" fill-opacity=".5" transform="matrix(-1.04038 2.16066 -38.99642 -18.77714 43.8 124.2)"/><path fill="#b6865f" fill-opacity=".5" d="m80 5.1-9.2 22 31 3.3-16.8-16z"/><path fill="#63585b" fill-opacity=".5" d="m226.3 61.5 44.7-21-49 48 38.1-17z"/><path fill="#eee4db" fill-opacity=".5" d="m166.9 79.2-60.1-54.4 10-19.5-34.7 6.8z"/><path fill="#086687" fill-opacity=".5" d="m62.1 133.8-6 25.2-72.1-45.2 76.7 22.4z"/><circle r="1" fill="#86b2cb" fill-opacity=".5" transform="matrix(-20.8798 -10.37717 1.04925 -2.11118 14.8 117.5)"/><path fill="#f6eae2" fill-opacity=".5" d="m1 92.3 85.5 40.6L8.2 74.5-16 60.3z"/><path fill="#9d6637" fill-opacity=".5" d="m-6 28 41 38-51-15z"/><path fill="#dda372" fill-opacity=".5" d="M127.8 45.7 87.5 25.1l43.3 33.8 57.2 41z"/><path fill="#e3a76f" fill-opacity=".5" d="M92.1 98.9 66.5 74.3l58.7 35 8.9 9z"/><circle r="1" fill="#ffe" fill-opacity=".5" transform="rotate(-72.4 103.1 64)scale(6.60375 40.24299)"/><path fill="#fff" fill-opacity=".5" d="m281.5 64.2-52.6 24.5-.4-.9 52.6-24.5z"/><path fill="#4a3e30" fill-opacity=".5" d="m73.1 22.1 18.2 9.7 51.2 35.3-78.2-44.3z"/><path fill="#3d3022" fill-opacity=".5" d="m175 86 14 6-23 4z"/><path fill="#096c87" fill-opacity=".5" d="M53.5 86.6 6.8 68l89.8 52.3 14-3.5z"/><path fill="#422505" fill-opacity=".5" d="M112.3 109.8 58 80.5l33.5 24.3-7.9-.9z"/><circle r="1" fill="#b1a79e" fill-opacity=".5" transform="matrix(-41.9453 18.50008 -1.5252 -3.45807 199.6 110)"/><path fill="#472b0f" fill-opacity=".5" d="m166.7 113.8-57-37 1.6-2.6 57 37z"/><path fill="#9bc7de" fill-opacity=".5" d="M54-16 25 29 9 8z"/><path fill="#fde5d8" fill-opacity=".5" d="m167.3 128.5 50.3 30.5-68.9-12 .6-32z"/><circle r="1" fill="#deb88c" fill-opacity=".5" transform="matrix(32.53033 21.67442 -2.45254 3.68092 92.2 55.7)"/><path fill="#ffeee8" fill-opacity=".5" d="m207.8 155.8-2-4.6 54.4-23 2 4.6z"/><path fill="#e3e4e3" fill-opacity=".5" d="m172.5 82.4 7.3-25.4-41-.8 24.9 19.6z"/><circle r="1" fill="#30291f" fill-opacity=".5" transform="rotate(154.4 106.7 68)scale(81.10062 1.20867)"/><path fill="#c7beb5" fill-opacity=".5" d="M247.6 63.8 138.9 119l-.5-.9L247.1 63z"/><path fill="#87492f" fill-opacity=".5" d="M199.4 159h31.1l18.5-12.7 17.4-13.7z"/><ellipse cx="130" cy="11" fill="#66a9c1" fill-opacity=".5" rx="11" ry="30"/><path fill="#5e91a3" fill-opacity=".5" d="m21.9 120.6 57.8 37.2L59 138l-19.7-12.5z"/><path fill="#382e28" fill-opacity=".5" d="m224.3 107.4-11.9 2.3 43.3-21.4 1.2 4.9z"/><path fill="#c9dee6" fill-opacity=".5" d="m154 38 8-17-30 19z"/><path fill="#61615d" fill-opacity=".5" d="M48 9.4 23.9 34.6l72.4 23.5-60.4-17.3z"/><path fill="#0189ab" fill-opacity=".5" d="m140.5 106.3-21.2-13.2 2.2-3.4 21.2 13.2z"/><circle cx="3" cy="110" r="6" fill="#9fafb4" fill-opacity=".5"/><path fill="#d2e1ed" fill-opacity=".5" d="m76.7-16 14.9 28.9L31.4 1 37 21.5z"/><path fill="#e3e7e6" fill-opacity=".5" d="m99.1 121.6-59-31.1-27.5-13.2L79.7 130z"/><path fill="#73b2ca" fill-opacity=".5" d="M162 0h35v59h-35z"/><circle r="1" fill="#86c2d8" fill-opacity=".5" transform="rotate(-150.8 125 -20)scale(23.9462 29.66757)"/><circle r="1" fill="#5e4e3a" fill-opacity=".5" transform="matrix(41.45828 26.82026 -1.55595 2.40515 55.1 80.6)"/><path fill="#fff8ef" fill-opacity=".5" d="M110 112h35v2h-35z"/><path fill="#19708c" fill-opacity=".5" d="m167.1 93-25.7-16.3-57.9-42.2 47.1 29.3z"/><path fill="#f1e7e0" fill-opacity=".5" d="M57.5 54.9 35.4 56l76.6 45.6 8.6-4.2z"/><circle r="1" fill="#f1e9e3" fill-opacity=".5" transform="matrix(219.41277 -93.9516 .39363 .91927 254.5 99)"/><path fill="#333633" fill-opacity=".5" d="m142.7 100.6 17.2 20.7 9.3-11.7-34-12.7z"/><path fill="#b1c4d0" fill-opacity=".5" d="m82 60 9 4-10-11z"/><path fill="#2f281a" fill-opacity=".5" d="M91.4 61.2 60 41.6l.6-.8L92 60.4z"/><path fill="#b6a495" fill-opacity=".5" d="m168 130-9-11 45-18z"/><path fill="#0b5065" fill-opacity=".5" d="m39 136-46-8 6-16z"/><circle r="1" fill="#fff8e7" fill-opacity=".5" transform="matrix(-1.24074 2.17025 -10.58031 -6.0488 163.8 97.7)"/><path fill="#868a8c" fill-opacity=".5" d="M111 114h37v30h-37z"/><circle r="1" fill="#fcece0" fill-opacity=".5" transform="rotate(127 52.8 55.1)scale(2.39418 26.35892)"/><circle r="1" fill="#10738d" fill-opacity=".5" transform="matrix(-3.86423 14.36454 -4.7915 -1.28897 .7 10.3)"/><path fill="#352f23" fill-opacity=".5" d="m214 136 57-27-10 19z"/><path fill="#9aafbc" fill-opacity=".5" d="M140.2 65.7 131 64l2.5 8.3 5 5.3z"/><path fill="#453625" fill-opacity=".5" d="m55.4 45-24-6.9 27.5 18.2-1.6-19.7z"/><path fill="#2d8aaa" fill-opacity=".5" d="m17 74 3-10 17 11z"/><path fill="#a79489" fill-opacity=".5" d="m40.4 96.5-55.2-28.1.4-1 55.2 28.2z"/><path fill="#a08061" fill-opacity=".5" d="m165.6 109.9 12-6.5 3.6 11.8L149 90z"/><path fill="#c6a27c" fill-opacity=".5" d="M84.6 139 37 118.2l-53-34.6 90.5 44.1z"/><path fill="#81b9cf" fill-opacity=".5" d="m118.1 30.8 5.2-22.5L84.1-16l8.6 31.6z"/><path fill="#7db9d0" fill-opacity=".5" d="m244 50-60 34-14-15z"/><path fill="#9b928f" fill-opacity=".5" d="m190.8 130.6 18.7 3.8 51.1-19.2-26.5 1.4z"/><path fill="#2e4447" fill-opacity=".5" d="M94.7 41 168 86.5l9.1 7.4-1.3 3.6z"/><path fill="#111107" fill-opacity=".5" d="m-7 67-9-5.6 29.7 3.8 1.2 10.2z"/><path fill="#68655d" fill-opacity=".5" d="m52.4 145.8 28.4-15.2 26.2-14.2 3.3 42.6z"/><path fill="#f7ebe1" fill-opacity=".5" d="M55.4 10.9 44 17.6l83.5 58.7L77.4 34z"/><path fill="#84b6cb" fill-opacity=".5" d="m144 25 10 27-16-4z"/><path fill="none" stroke="#30281a" stroke-opacity=".5" stroke-width=".5" d="M271 87.2q-35.5 10-86.1 36.2"/><circle r="1" fill="#6f7d82" fill-opacity=".5" transform="matrix(.49849 -.8669 105.61218 60.7297 44.6 78.8)"/><circle r="1" fill="#b78d61" fill-opacity=".5" transform="matrix(9.57034 4.48909 -3.006 6.40853 50.3 34)"/><path fill="#938a86" fill-opacity=".5" d="m262.6 65.8-46.2 23.8-47 19.6 91.4-55.8z"/><path fill="#fafcfa" fill-opacity=".5" d="m11 75.7 50.3 28.7-67.6-35.3-9.7-4z"/><path fill="#513e22" fill-opacity=".5" d="M117.1 112.8 33.4 69.4l-16.3-11 26.6 11.8z"/><path fill="#332b17" fill-opacity=".5" d="m211.9 110.6.4 1-40.2 17.8-.4-1z"/><path fill="#117b96" fill-opacity=".5" d="m102.8 82.6 2.2-3.3 40.2 26-2.2 3.4z"/><path fill="#4f2700" fill-opacity=".5" d="m-7 99.2.4-1L15 108.9l-.4 1z"/><circle r="1" fill="#c4b5ac" fill-opacity=".5" transform="rotate(27.1 -184 154)scale(58.23163 1)"/><path fill="#747a83" fill-opacity=".5" d="M83.1 9.2 65.6 25.5l-.7-.7L82.4 8.5z"/><path fill="#c09e7d" fill-opacity=".5" d="m-6 43 12-6 31 26z"/><path fill="#433525" fill-opacity=".5" d="m195 141-3 18 41-32z"/><path fill="#e2ecf2" fill-opacity=".5" d="m67.3 21.1-31.5-17L75 8.6 90 .9z"/><path fill="#1d7085" fill-opacity=".5" d="m36.1 88.7 70.6 34.4-85.2-54.7-8.1 7.2z"/><path fill="#292d2e" fill-opacity=".5" d="m140.3 106.6 13.1 7.7 10.8 3.8-2.5-11.7z"/><path fill="#a07f72" fill-opacity=".5" d="m-16 139.1 17.2 1.7 17.6 8.1z"/><path fill="#302917" fill-opacity=".5" d="m-10 49 23 26 4-15z"/><path fill="#fffffd" fill-opacity=".5" d="m31 159 17-8-56-23z"/><circle r="1" fill="#e4d8cf" fill-opacity=".5" transform="matrix(26.0743 11.17546 -2.01466 4.70056 25.8 43)"/><path fill="#110d05" fill-opacity=".5" d="m182.2 106.5.4.9-22.8 10.1-.4-.9z"/><path fill="#bbd1dc" fill-opacity=".5" d="m113 12-5-22-13 28z"/><path fill="#4c3619" fill-opacity=".5" d="M116 112 96 99l8 12z"/></g></g></svg>
